<mxfile host="app.diagrams.net" modified="2022-01-24T04:08:34.873Z" agent="5.0 (Windows NT 10.0; Win64; x64) AppleWebKit/537.36 (KHTML, like Gecko) Chrome/97.0.4692.99 Safari/537.36" etag="qrCZfScXlmaE9OO0lJQ7" version="16.4.5" type="github">
  <diagram id="C5RBs43oDa-KdzZeNtuy" name="Page-1">
    <mxGraphModel dx="1038" dy="631" grid="1" gridSize="10" guides="1" tooltips="1" connect="1" arrows="1" fold="1" page="1" pageScale="1" pageWidth="827" pageHeight="1169" math="0" shadow="0">
      <root>
        <mxCell id="WIyWlLk6GJQsqaUBKTNV-0" />
        <mxCell id="WIyWlLk6GJQsqaUBKTNV-1" parent="WIyWlLk6GJQsqaUBKTNV-0" />
        <mxCell id="HZIwIbo949U0xjIL2Lyr-36" value="" style="shape=table;startSize=0;container=1;collapsible=0;childLayout=tableLayout;dashed=1;dashPattern=1 4;swimlaneFillColor=none;fillColor=#f5f5f5;fontColor=#333333;strokeColor=#666666;" vertex="1" parent="WIyWlLk6GJQsqaUBKTNV-1">
          <mxGeometry x="50" y="100" width="730" height="780" as="geometry" />
        </mxCell>
        <mxCell id="HZIwIbo949U0xjIL2Lyr-37" value="" style="shape=tableRow;horizontal=0;startSize=0;swimlaneHead=0;swimlaneBody=0;top=0;left=0;bottom=0;right=0;collapsible=0;dropTarget=0;fillColor=none;points=[[0,0.5],[1,0.5]];portConstraint=eastwest;" vertex="1" parent="HZIwIbo949U0xjIL2Lyr-36">
          <mxGeometry width="730" height="40" as="geometry" />
        </mxCell>
        <mxCell id="HZIwIbo949U0xjIL2Lyr-38" value="&lt;b&gt;&lt;font style=&quot;font-size: 18px&quot;&gt;Symbol&lt;/font&gt;&lt;/b&gt;" style="shape=partialRectangle;html=1;whiteSpace=wrap;connectable=0;overflow=hidden;fillColor=#dae8fc;top=0;left=0;bottom=0;right=0;pointerEvents=1;strokeColor=#6c8ebf;" vertex="1" parent="HZIwIbo949U0xjIL2Lyr-37">
          <mxGeometry width="140" height="40" as="geometry">
            <mxRectangle width="140" height="40" as="alternateBounds" />
          </mxGeometry>
        </mxCell>
        <mxCell id="HZIwIbo949U0xjIL2Lyr-39" value="&lt;b&gt;&lt;font style=&quot;font-size: 18px&quot;&gt;Purpose&lt;/font&gt;&lt;/b&gt;" style="shape=partialRectangle;html=1;whiteSpace=wrap;connectable=0;overflow=hidden;fillColor=#dae8fc;top=0;left=0;bottom=0;right=0;pointerEvents=1;strokeColor=#6c8ebf;" vertex="1" parent="HZIwIbo949U0xjIL2Lyr-37">
          <mxGeometry x="140" width="100" height="40" as="geometry">
            <mxRectangle width="100" height="40" as="alternateBounds" />
          </mxGeometry>
        </mxCell>
        <mxCell id="HZIwIbo949U0xjIL2Lyr-40" value="&lt;b&gt;&lt;font style=&quot;font-size: 18px&quot;&gt;Description&lt;/font&gt;&lt;/b&gt;" style="shape=partialRectangle;html=1;whiteSpace=wrap;connectable=0;overflow=hidden;fillColor=#dae8fc;top=0;left=0;bottom=0;right=0;pointerEvents=1;strokeColor=#6c8ebf;" vertex="1" parent="HZIwIbo949U0xjIL2Lyr-37">
          <mxGeometry x="240" width="490" height="40" as="geometry">
            <mxRectangle width="490" height="40" as="alternateBounds" />
          </mxGeometry>
        </mxCell>
        <mxCell id="HZIwIbo949U0xjIL2Lyr-41" value="" style="shape=tableRow;horizontal=0;startSize=0;swimlaneHead=0;swimlaneBody=0;top=0;left=0;bottom=0;right=0;collapsible=0;dropTarget=0;fillColor=none;points=[[0,0.5],[1,0.5]];portConstraint=eastwest;" vertex="1" parent="HZIwIbo949U0xjIL2Lyr-36">
          <mxGeometry y="40" width="730" height="70" as="geometry" />
        </mxCell>
        <mxCell id="HZIwIbo949U0xjIL2Lyr-42" value="" style="shape=partialRectangle;html=1;whiteSpace=wrap;connectable=0;overflow=hidden;fillColor=none;top=0;left=0;bottom=0;right=0;pointerEvents=1;" vertex="1" parent="HZIwIbo949U0xjIL2Lyr-41">
          <mxGeometry width="140" height="70" as="geometry">
            <mxRectangle width="140" height="70" as="alternateBounds" />
          </mxGeometry>
        </mxCell>
        <mxCell id="HZIwIbo949U0xjIL2Lyr-43" value="&lt;b&gt;Flow Line&lt;/b&gt;" style="shape=partialRectangle;html=1;whiteSpace=wrap;connectable=0;overflow=hidden;fillColor=none;top=0;left=0;bottom=0;right=0;pointerEvents=1;" vertex="1" parent="HZIwIbo949U0xjIL2Lyr-41">
          <mxGeometry x="140" width="100" height="70" as="geometry">
            <mxRectangle width="100" height="70" as="alternateBounds" />
          </mxGeometry>
        </mxCell>
        <mxCell id="HZIwIbo949U0xjIL2Lyr-44" value="&lt;b&gt;Used to connect symbols and indicates the flow of logic&lt;/b&gt;" style="shape=partialRectangle;html=1;whiteSpace=wrap;connectable=0;overflow=hidden;fillColor=none;top=0;left=0;bottom=0;right=0;pointerEvents=1;" vertex="1" parent="HZIwIbo949U0xjIL2Lyr-41">
          <mxGeometry x="240" width="490" height="70" as="geometry">
            <mxRectangle width="490" height="70" as="alternateBounds" />
          </mxGeometry>
        </mxCell>
        <mxCell id="HZIwIbo949U0xjIL2Lyr-45" value="" style="shape=tableRow;horizontal=0;startSize=0;swimlaneHead=0;swimlaneBody=0;top=0;left=0;bottom=0;right=0;collapsible=0;dropTarget=0;fillColor=none;points=[[0,0.5],[1,0.5]];portConstraint=eastwest;" vertex="1" parent="HZIwIbo949U0xjIL2Lyr-36">
          <mxGeometry y="110" width="730" height="60" as="geometry" />
        </mxCell>
        <mxCell id="HZIwIbo949U0xjIL2Lyr-46" value="" style="shape=partialRectangle;html=1;whiteSpace=wrap;connectable=0;overflow=hidden;fillColor=none;top=0;left=0;bottom=0;right=0;pointerEvents=1;" vertex="1" parent="HZIwIbo949U0xjIL2Lyr-45">
          <mxGeometry width="140" height="60" as="geometry">
            <mxRectangle width="140" height="60" as="alternateBounds" />
          </mxGeometry>
        </mxCell>
        <mxCell id="HZIwIbo949U0xjIL2Lyr-47" value="&lt;b&gt;Terminal&lt;br&gt;(start/stop)&lt;/b&gt;" style="shape=partialRectangle;html=1;whiteSpace=wrap;connectable=0;overflow=hidden;fillColor=none;top=0;left=0;bottom=0;right=0;pointerEvents=1;" vertex="1" parent="HZIwIbo949U0xjIL2Lyr-45">
          <mxGeometry x="140" width="100" height="60" as="geometry">
            <mxRectangle width="100" height="60" as="alternateBounds" />
          </mxGeometry>
        </mxCell>
        <mxCell id="HZIwIbo949U0xjIL2Lyr-48" value="&lt;b&gt;Used to indicate the start and end of the flowchart. One flow line exists from the start and one enters to stop.&lt;/b&gt;" style="shape=partialRectangle;html=1;whiteSpace=wrap;connectable=0;overflow=hidden;fillColor=none;top=0;left=0;bottom=0;right=0;pointerEvents=1;" vertex="1" parent="HZIwIbo949U0xjIL2Lyr-45">
          <mxGeometry x="240" width="490" height="60" as="geometry">
            <mxRectangle width="490" height="60" as="alternateBounds" />
          </mxGeometry>
        </mxCell>
        <mxCell id="HZIwIbo949U0xjIL2Lyr-49" value="" style="shape=tableRow;horizontal=0;startSize=0;swimlaneHead=0;swimlaneBody=0;top=0;left=0;bottom=0;right=0;collapsible=0;dropTarget=0;fillColor=none;points=[[0,0.5],[1,0.5]];portConstraint=eastwest;" vertex="1" parent="HZIwIbo949U0xjIL2Lyr-36">
          <mxGeometry y="170" width="730" height="70" as="geometry" />
        </mxCell>
        <mxCell id="HZIwIbo949U0xjIL2Lyr-50" value="" style="shape=partialRectangle;html=1;whiteSpace=wrap;connectable=0;overflow=hidden;fillColor=none;top=0;left=0;bottom=0;right=0;pointerEvents=1;" vertex="1" parent="HZIwIbo949U0xjIL2Lyr-49">
          <mxGeometry width="140" height="70" as="geometry">
            <mxRectangle width="140" height="70" as="alternateBounds" />
          </mxGeometry>
        </mxCell>
        <mxCell id="HZIwIbo949U0xjIL2Lyr-51" value="&lt;b&gt;Processing&lt;/b&gt;" style="shape=partialRectangle;html=1;whiteSpace=wrap;connectable=0;overflow=hidden;fillColor=none;top=0;left=0;bottom=0;right=0;pointerEvents=1;" vertex="1" parent="HZIwIbo949U0xjIL2Lyr-49">
          <mxGeometry x="140" width="100" height="70" as="geometry">
            <mxRectangle width="100" height="70" as="alternateBounds" />
          </mxGeometry>
        </mxCell>
        <mxCell id="HZIwIbo949U0xjIL2Lyr-52" value="&lt;b&gt;Used to show the processing of data, most often with arithmetic operations.&lt;/b&gt;" style="shape=partialRectangle;html=1;whiteSpace=wrap;connectable=0;overflow=hidden;fillColor=none;top=0;left=0;bottom=0;right=0;pointerEvents=1;" vertex="1" parent="HZIwIbo949U0xjIL2Lyr-49">
          <mxGeometry x="240" width="490" height="70" as="geometry">
            <mxRectangle width="490" height="70" as="alternateBounds" />
          </mxGeometry>
        </mxCell>
        <mxCell id="HZIwIbo949U0xjIL2Lyr-53" value="" style="shape=tableRow;horizontal=0;startSize=0;swimlaneHead=0;swimlaneBody=0;top=0;left=0;bottom=0;right=0;collapsible=0;dropTarget=0;fillColor=none;points=[[0,0.5],[1,0.5]];portConstraint=eastwest;" vertex="1" parent="HZIwIbo949U0xjIL2Lyr-36">
          <mxGeometry y="240" width="730" height="80" as="geometry" />
        </mxCell>
        <mxCell id="HZIwIbo949U0xjIL2Lyr-54" value="" style="shape=partialRectangle;html=1;whiteSpace=wrap;connectable=0;overflow=hidden;fillColor=none;top=0;left=0;bottom=0;right=0;pointerEvents=1;" vertex="1" parent="HZIwIbo949U0xjIL2Lyr-53">
          <mxGeometry width="140" height="80" as="geometry">
            <mxRectangle width="140" height="80" as="alternateBounds" />
          </mxGeometry>
        </mxCell>
        <mxCell id="HZIwIbo949U0xjIL2Lyr-55" value="&lt;b&gt;Input/Output&lt;/b&gt;" style="shape=partialRectangle;html=1;whiteSpace=wrap;connectable=0;overflow=hidden;fillColor=none;top=0;left=0;bottom=0;right=0;pointerEvents=1;" vertex="1" parent="HZIwIbo949U0xjIL2Lyr-53">
          <mxGeometry x="140" width="100" height="80" as="geometry">
            <mxRectangle width="100" height="80" as="alternateBounds" />
          </mxGeometry>
        </mxCell>
        <mxCell id="HZIwIbo949U0xjIL2Lyr-56" value="Used whenever data is read into and displayed.&amp;nbsp;" style="shape=partialRectangle;html=1;whiteSpace=wrap;connectable=0;overflow=hidden;fillColor=none;top=0;left=0;bottom=0;right=0;pointerEvents=1;fontStyle=1" vertex="1" parent="HZIwIbo949U0xjIL2Lyr-53">
          <mxGeometry x="240" width="490" height="80" as="geometry">
            <mxRectangle width="490" height="80" as="alternateBounds" />
          </mxGeometry>
        </mxCell>
        <mxCell id="HZIwIbo949U0xjIL2Lyr-57" value="" style="shape=tableRow;horizontal=0;startSize=0;swimlaneHead=0;swimlaneBody=0;top=0;left=0;bottom=0;right=0;collapsible=0;dropTarget=0;fillColor=none;points=[[0,0.5],[1,0.5]];portConstraint=eastwest;" vertex="1" parent="HZIwIbo949U0xjIL2Lyr-36">
          <mxGeometry y="320" width="730" height="100" as="geometry" />
        </mxCell>
        <mxCell id="HZIwIbo949U0xjIL2Lyr-58" value="" style="shape=partialRectangle;html=1;whiteSpace=wrap;connectable=0;overflow=hidden;fillColor=none;top=0;left=0;bottom=0;right=0;pointerEvents=1;" vertex="1" parent="HZIwIbo949U0xjIL2Lyr-57">
          <mxGeometry width="140" height="100" as="geometry">
            <mxRectangle width="140" height="100" as="alternateBounds" />
          </mxGeometry>
        </mxCell>
        <mxCell id="HZIwIbo949U0xjIL2Lyr-59" value="&lt;b&gt;Decision&lt;/b&gt;" style="shape=partialRectangle;html=1;whiteSpace=wrap;connectable=0;overflow=hidden;fillColor=none;top=0;left=0;bottom=0;right=0;pointerEvents=1;" vertex="1" parent="HZIwIbo949U0xjIL2Lyr-57">
          <mxGeometry x="140" width="100" height="100" as="geometry">
            <mxRectangle width="100" height="100" as="alternateBounds" />
          </mxGeometry>
        </mxCell>
        <mxCell id="HZIwIbo949U0xjIL2Lyr-60" value="&lt;b&gt;Used to represent operations in which there are two or more possible. Used for decision making and branching. A single flow line enters and two or three flow lines can exit.&amp;nbsp;&lt;/b&gt;" style="shape=partialRectangle;html=1;whiteSpace=wrap;connectable=0;overflow=hidden;fillColor=none;top=0;left=0;bottom=0;right=0;pointerEvents=1;" vertex="1" parent="HZIwIbo949U0xjIL2Lyr-57">
          <mxGeometry x="240" width="490" height="100" as="geometry">
            <mxRectangle width="490" height="100" as="alternateBounds" />
          </mxGeometry>
        </mxCell>
        <mxCell id="HZIwIbo949U0xjIL2Lyr-61" value="" style="shape=tableRow;horizontal=0;startSize=0;swimlaneHead=0;swimlaneBody=0;top=0;left=0;bottom=0;right=0;collapsible=0;dropTarget=0;fillColor=none;points=[[0,0.5],[1,0.5]];portConstraint=eastwest;" vertex="1" parent="HZIwIbo949U0xjIL2Lyr-36">
          <mxGeometry y="420" width="730" height="90" as="geometry" />
        </mxCell>
        <mxCell id="HZIwIbo949U0xjIL2Lyr-62" value="" style="shape=partialRectangle;html=1;whiteSpace=wrap;connectable=0;overflow=hidden;fillColor=none;top=0;left=0;bottom=0;right=0;pointerEvents=1;" vertex="1" parent="HZIwIbo949U0xjIL2Lyr-61">
          <mxGeometry width="140" height="90" as="geometry">
            <mxRectangle width="140" height="90" as="alternateBounds" />
          </mxGeometry>
        </mxCell>
        <mxCell id="HZIwIbo949U0xjIL2Lyr-63" value="&lt;b&gt;Predefined Process/ Function&lt;/b&gt;" style="shape=partialRectangle;html=1;whiteSpace=wrap;connectable=0;overflow=hidden;fillColor=none;top=0;left=0;bottom=0;right=0;pointerEvents=1;" vertex="1" parent="HZIwIbo949U0xjIL2Lyr-61">
          <mxGeometry x="140" width="100" height="90" as="geometry">
            <mxRectangle width="100" height="90" as="alternateBounds" />
          </mxGeometry>
        </mxCell>
        <mxCell id="HZIwIbo949U0xjIL2Lyr-64" value="&lt;b&gt;Used to represent the function call. If a program uses predefined functions then this block can be used to represent.&lt;/b&gt;" style="shape=partialRectangle;html=1;whiteSpace=wrap;connectable=0;overflow=hidden;fillColor=none;top=0;left=0;bottom=0;right=0;pointerEvents=1;" vertex="1" parent="HZIwIbo949U0xjIL2Lyr-61">
          <mxGeometry x="240" width="490" height="90" as="geometry">
            <mxRectangle width="490" height="90" as="alternateBounds" />
          </mxGeometry>
        </mxCell>
        <mxCell id="HZIwIbo949U0xjIL2Lyr-65" value="" style="shape=tableRow;horizontal=0;startSize=0;swimlaneHead=0;swimlaneBody=0;top=0;left=0;bottom=0;right=0;collapsible=0;dropTarget=0;fillColor=none;points=[[0,0.5],[1,0.5]];portConstraint=eastwest;" vertex="1" parent="HZIwIbo949U0xjIL2Lyr-36">
          <mxGeometry y="510" width="730" height="60" as="geometry" />
        </mxCell>
        <mxCell id="HZIwIbo949U0xjIL2Lyr-66" value="" style="shape=partialRectangle;html=1;whiteSpace=wrap;connectable=0;overflow=hidden;fillColor=none;top=0;left=0;bottom=0;right=0;pointerEvents=1;" vertex="1" parent="HZIwIbo949U0xjIL2Lyr-65">
          <mxGeometry width="140" height="60" as="geometry">
            <mxRectangle width="140" height="60" as="alternateBounds" />
          </mxGeometry>
        </mxCell>
        <mxCell id="HZIwIbo949U0xjIL2Lyr-67" value="&lt;b&gt;On-page Connector&lt;/b&gt;" style="shape=partialRectangle;html=1;whiteSpace=wrap;connectable=0;overflow=hidden;fillColor=none;top=0;left=0;bottom=0;right=0;pointerEvents=1;" vertex="1" parent="HZIwIbo949U0xjIL2Lyr-65">
          <mxGeometry x="140" width="100" height="60" as="geometry">
            <mxRectangle width="100" height="60" as="alternateBounds" />
          </mxGeometry>
        </mxCell>
        <mxCell id="HZIwIbo949U0xjIL2Lyr-68" value="&lt;b&gt;Used to connect remote/unfinished flowchart portions on the same page.&lt;/b&gt;" style="shape=partialRectangle;html=1;whiteSpace=wrap;connectable=0;overflow=hidden;fillColor=none;top=0;left=0;bottom=0;right=0;pointerEvents=1;" vertex="1" parent="HZIwIbo949U0xjIL2Lyr-65">
          <mxGeometry x="240" width="490" height="60" as="geometry">
            <mxRectangle width="490" height="60" as="alternateBounds" />
          </mxGeometry>
        </mxCell>
        <mxCell id="HZIwIbo949U0xjIL2Lyr-69" value="" style="shape=tableRow;horizontal=0;startSize=0;swimlaneHead=0;swimlaneBody=0;top=0;left=0;bottom=0;right=0;collapsible=0;dropTarget=0;fillColor=none;points=[[0,0.5],[1,0.5]];portConstraint=eastwest;" vertex="1" parent="HZIwIbo949U0xjIL2Lyr-36">
          <mxGeometry y="570" width="730" height="60" as="geometry" />
        </mxCell>
        <mxCell id="HZIwIbo949U0xjIL2Lyr-70" value="" style="shape=partialRectangle;html=1;whiteSpace=wrap;connectable=0;overflow=hidden;fillColor=none;top=0;left=0;bottom=0;right=0;pointerEvents=1;" vertex="1" parent="HZIwIbo949U0xjIL2Lyr-69">
          <mxGeometry width="140" height="60" as="geometry">
            <mxRectangle width="140" height="60" as="alternateBounds" />
          </mxGeometry>
        </mxCell>
        <mxCell id="HZIwIbo949U0xjIL2Lyr-71" value="&lt;b&gt;Off-page Connector&lt;/b&gt;" style="shape=partialRectangle;html=1;whiteSpace=wrap;connectable=0;overflow=hidden;fillColor=none;top=0;left=0;bottom=0;right=0;pointerEvents=1;" vertex="1" parent="HZIwIbo949U0xjIL2Lyr-69">
          <mxGeometry x="140" width="100" height="60" as="geometry">
            <mxRectangle width="100" height="60" as="alternateBounds" />
          </mxGeometry>
        </mxCell>
        <mxCell id="HZIwIbo949U0xjIL2Lyr-72" value="&lt;b&gt;Used to connect remote/unfinished flowchart portions on different pages.&lt;/b&gt;" style="shape=partialRectangle;html=1;whiteSpace=wrap;connectable=0;overflow=hidden;fillColor=none;top=0;left=0;bottom=0;right=0;pointerEvents=1;" vertex="1" parent="HZIwIbo949U0xjIL2Lyr-69">
          <mxGeometry x="240" width="490" height="60" as="geometry">
            <mxRectangle width="490" height="60" as="alternateBounds" />
          </mxGeometry>
        </mxCell>
        <mxCell id="HZIwIbo949U0xjIL2Lyr-73" value="" style="shape=tableRow;horizontal=0;startSize=0;swimlaneHead=0;swimlaneBody=0;top=0;left=0;bottom=0;right=0;collapsible=0;dropTarget=0;fillColor=none;points=[[0,0.5],[1,0.5]];portConstraint=eastwest;" vertex="1" parent="HZIwIbo949U0xjIL2Lyr-36">
          <mxGeometry y="630" width="730" height="70" as="geometry" />
        </mxCell>
        <mxCell id="HZIwIbo949U0xjIL2Lyr-74" value="" style="shape=partialRectangle;html=1;whiteSpace=wrap;connectable=0;overflow=hidden;fillColor=none;top=0;left=0;bottom=0;right=0;pointerEvents=1;" vertex="1" parent="HZIwIbo949U0xjIL2Lyr-73">
          <mxGeometry width="140" height="70" as="geometry">
            <mxRectangle width="140" height="70" as="alternateBounds" />
          </mxGeometry>
        </mxCell>
        <mxCell id="HZIwIbo949U0xjIL2Lyr-75" value="&lt;b&gt;Comment&lt;/b&gt;" style="shape=partialRectangle;html=1;whiteSpace=wrap;connectable=0;overflow=hidden;fillColor=none;top=0;left=0;bottom=0;right=0;pointerEvents=1;" vertex="1" parent="HZIwIbo949U0xjIL2Lyr-73">
          <mxGeometry x="140" width="100" height="70" as="geometry">
            <mxRectangle width="100" height="70" as="alternateBounds" />
          </mxGeometry>
        </mxCell>
        <mxCell id="HZIwIbo949U0xjIL2Lyr-76" value="&lt;b&gt;Used to add comments or clarification.&lt;/b&gt;" style="shape=partialRectangle;html=1;whiteSpace=wrap;connectable=0;overflow=hidden;fillColor=none;top=0;left=0;bottom=0;right=0;pointerEvents=1;" vertex="1" parent="HZIwIbo949U0xjIL2Lyr-73">
          <mxGeometry x="240" width="490" height="70" as="geometry">
            <mxRectangle width="490" height="70" as="alternateBounds" />
          </mxGeometry>
        </mxCell>
        <mxCell id="HZIwIbo949U0xjIL2Lyr-77" value="" style="shape=tableRow;horizontal=0;startSize=0;swimlaneHead=0;swimlaneBody=0;top=0;left=0;bottom=0;right=0;collapsible=0;dropTarget=0;fillColor=none;points=[[0,0.5],[1,0.5]];portConstraint=eastwest;" vertex="1" parent="HZIwIbo949U0xjIL2Lyr-36">
          <mxGeometry y="700" width="730" height="80" as="geometry" />
        </mxCell>
        <mxCell id="HZIwIbo949U0xjIL2Lyr-78" value="" style="shape=partialRectangle;html=1;whiteSpace=wrap;connectable=0;overflow=hidden;fillColor=none;top=0;left=0;bottom=0;right=0;pointerEvents=1;" vertex="1" parent="HZIwIbo949U0xjIL2Lyr-77">
          <mxGeometry width="140" height="80" as="geometry">
            <mxRectangle width="140" height="80" as="alternateBounds" />
          </mxGeometry>
        </mxCell>
        <mxCell id="HZIwIbo949U0xjIL2Lyr-79" value="&lt;b&gt;Magnetic Disk Storage&lt;/b&gt;" style="shape=partialRectangle;html=1;whiteSpace=wrap;connectable=0;overflow=hidden;fillColor=none;top=0;left=0;bottom=0;right=0;pointerEvents=1;" vertex="1" parent="HZIwIbo949U0xjIL2Lyr-77">
          <mxGeometry x="140" width="100" height="80" as="geometry">
            <mxRectangle width="100" height="80" as="alternateBounds" />
          </mxGeometry>
        </mxCell>
        <mxCell id="HZIwIbo949U0xjIL2Lyr-80" value="&lt;b&gt;Used to show storage in magnetic disk. More than one flow line can enter and exit.&lt;/b&gt;" style="shape=partialRectangle;html=1;whiteSpace=wrap;connectable=0;overflow=hidden;fillColor=none;top=0;left=0;bottom=0;right=0;pointerEvents=1;" vertex="1" parent="HZIwIbo949U0xjIL2Lyr-77">
          <mxGeometry x="240" width="490" height="80" as="geometry">
            <mxRectangle width="490" height="80" as="alternateBounds" />
          </mxGeometry>
        </mxCell>
        <mxCell id="HZIwIbo949U0xjIL2Lyr-90" value="" style="endArrow=classic;html=1;fontSize=18;strokeWidth=2;" edge="1" parent="WIyWlLk6GJQsqaUBKTNV-1">
          <mxGeometry width="50" height="50" relative="1" as="geometry">
            <mxPoint x="90" y="200" as="sourcePoint" />
            <mxPoint x="140" y="150" as="targetPoint" />
          </mxGeometry>
        </mxCell>
        <mxCell id="HZIwIbo949U0xjIL2Lyr-91" value="" style="ellipse;whiteSpace=wrap;html=1;fontSize=18;strokeWidth=2;" vertex="1" parent="WIyWlLk6GJQsqaUBKTNV-1">
          <mxGeometry x="60" y="220" width="120" height="40" as="geometry" />
        </mxCell>
        <mxCell id="HZIwIbo949U0xjIL2Lyr-92" value="" style="rounded=0;whiteSpace=wrap;html=1;fontSize=18;strokeWidth=2;" vertex="1" parent="WIyWlLk6GJQsqaUBKTNV-1">
          <mxGeometry x="65" y="280" width="110" height="50" as="geometry" />
        </mxCell>
        <mxCell id="HZIwIbo949U0xjIL2Lyr-93" value="" style="shape=parallelogram;perimeter=parallelogramPerimeter;whiteSpace=wrap;html=1;fixedSize=1;fontSize=18;strokeWidth=2;" vertex="1" parent="WIyWlLk6GJQsqaUBKTNV-1">
          <mxGeometry x="60" y="350" width="120" height="60" as="geometry" />
        </mxCell>
        <mxCell id="HZIwIbo949U0xjIL2Lyr-94" value="" style="rhombus;whiteSpace=wrap;html=1;fontSize=18;strokeWidth=2;" vertex="1" parent="WIyWlLk6GJQsqaUBKTNV-1">
          <mxGeometry x="80" y="430" width="80" height="80" as="geometry" />
        </mxCell>
        <mxCell id="HZIwIbo949U0xjIL2Lyr-95" value="" style="shape=process;whiteSpace=wrap;html=1;backgroundOutline=1;fontSize=18;strokeWidth=2;" vertex="1" parent="WIyWlLk6GJQsqaUBKTNV-1">
          <mxGeometry x="60" y="540" width="120" height="60" as="geometry" />
        </mxCell>
        <mxCell id="HZIwIbo949U0xjIL2Lyr-96" value="" style="ellipse;whiteSpace=wrap;html=1;aspect=fixed;fontSize=18;strokeWidth=2;" vertex="1" parent="WIyWlLk6GJQsqaUBKTNV-1">
          <mxGeometry x="100" y="620" width="40" height="40" as="geometry" />
        </mxCell>
        <mxCell id="HZIwIbo949U0xjIL2Lyr-97" value="" style="shape=offPageConnector;whiteSpace=wrap;html=1;fontSize=18;strokeWidth=2;" vertex="1" parent="WIyWlLk6GJQsqaUBKTNV-1">
          <mxGeometry x="95" y="680" width="50" height="40" as="geometry" />
        </mxCell>
        <mxCell id="HZIwIbo949U0xjIL2Lyr-98" value="" style="strokeWidth=2;html=1;shape=mxgraph.flowchart.annotation_1;align=left;pointerEvents=1;fontSize=18;" vertex="1" parent="WIyWlLk6GJQsqaUBKTNV-1">
          <mxGeometry x="115" y="750" width="60" height="40" as="geometry" />
        </mxCell>
        <mxCell id="HZIwIbo949U0xjIL2Lyr-99" value="" style="endArrow=none;dashed=1;html=1;fontSize=18;strokeWidth=2;entryX=0;entryY=0.5;entryDx=0;entryDy=0;entryPerimeter=0;" edge="1" parent="WIyWlLk6GJQsqaUBKTNV-1" target="HZIwIbo949U0xjIL2Lyr-98">
          <mxGeometry width="50" height="50" relative="1" as="geometry">
            <mxPoint x="65" y="770" as="sourcePoint" />
            <mxPoint x="115" y="730" as="targetPoint" />
          </mxGeometry>
        </mxCell>
        <mxCell id="HZIwIbo949U0xjIL2Lyr-100" value="" style="shape=cylinder3;whiteSpace=wrap;html=1;boundedLbl=1;backgroundOutline=1;size=15;fontSize=18;strokeWidth=2;" vertex="1" parent="WIyWlLk6GJQsqaUBKTNV-1">
          <mxGeometry x="90" y="810" width="60" height="60" as="geometry" />
        </mxCell>
        <mxCell id="HZIwIbo949U0xjIL2Lyr-102" value="" style="shape=image;imageAspect=0;aspect=fixed;verticalLabelPosition=bottom;verticalAlign=top;fontFamily=Helvetica;fontSize=18;strokeWidth=2;gradientColor=none;image=data:image/png,iVBORw0KGgoAAAANSUhEUgAAAeoAAADQCAYAAADI+yJFAAAACXBIWXMAABJ0AAASdAHeZh94AAAJmmlUWHRYTUw6Y29tLmFkb2JlLnhtcAAAAAAAPD94cGFja2V0IGJlZ2luPSLvu78iIGlkPSJXNU0wTXBDZWhpSHpyZVN6TlRjemtjOWQiPz4gPHg6eG1wbWV0YSB4bWxuczp4PSJhZG9iZTpuczptZXRhLyIgeDp4bXB0az0iQWRvYmUgWE1QIENvcmUgNi4wLWMwMDYgNzkuMTY0NzUzLCAyMDIxLzAyLzE1LTExOjUyOjEzICAgICAgICAiPiA8cmRmOlJERiB4bWxuczpyZGY9Imh0dHA6Ly93d3cudzMub3JnLzE5OTkvMDIvMjItcmRmLXN5bnRheC1ucyMiPiA8cmRmOkRlc2NyaXB0aW9uIHJkZjphYm91dD0iIiB4bWxuczp4bXA9Imh0dHA6Ly9ucy5hZG9iZS5jb20veGFwLzEuMC8iIHhtbG5zOmRjPSJodHRwOi8vcHVybC5vcmcvZGMvZWxlbWVudHMvMS4xLyIgeG1sbnM6eG1wTU09Imh0dHA6Ly9ucy5hZG9iZS5jb20veGFwLzEuMC9tbS8iIHhtbG5zOnN0RXZ0PSJodHRwOi8vbnMuYWRvYmUuY29tL3hhcC8xLjAvc1R5cGUvUmVzb3VyY2VFdmVudCMiIHhtbG5zOnN0UmVmPSJodHRwOi8vbnMuYWRvYmUuY29tL3hhcC8xLjAvc1R5cGUvUmVzb3VyY2VSZWYjIiB4bWxuczpwaG90b3Nob3A9Imh0dHA6Ly9ucy5hZG9iZS5jb20vcGhvdG9zaG9wLzEuMC8iIHhtcDpDcmVhdG9yVG9vbD0iQWRvYmUgUGhvdG9zaG9wIDIyLjMgKFdpbmRvd3MpIiB4bXA6Q3JlYXRlRGF0ZT0iMjAyMi0wMS0yM1QyMzowNTo1NS0wNTowMCIgeG1wOk1ldGFkYXRhRGF0ZT0iMjAyMi0wMS0yM1QyMzowNjoxMS0wNTowMCIgeG1wOk1vZGlmeURhdGU9IjIwMjItMDEtMjNUMjM6MDY6MTEtMDU6MDAiIGRjOmZvcm1hdD0iaW1hZ2UvcG5nIiB4bXBNTTpJbnN0YW5jZUlEPSJ4bXAuaWlkOmEzNzhjZDVhLWE4MDgtZGI0Yy05MTM0LTc1ZGU3NWJjYWZmYiIgeG1wTU06RG9jdW1lbnRJRD0iYWRvYmU6ZG9jaWQ6cGhvdG9zaG9wOmQwNDcwMDA5LTQzOGMtOWE0ZC04NTAyLTkyMDM4ZGJlNmNlNCIgeG1wTU06T3JpZ2luYWxEb2N1bWVudElEPSJ4bXAuZGlkOjViMjNlOGZkLTg3YjEtYTU0Ny1iMzEwLTg1Y2VlNjJmMmNlYiIgcGhvdG9zaG9wOkNvbG9yTW9kZT0iMyIgcGhvdG9zaG9wOklDQ1Byb2ZpbGU9InNSR0IgSUVDNjE5NjYtMi4xIj4gPHhtcE1NOkhpc3Rvcnk+IDxyZGY6U2VxPiA8cmRmOmxpIHN0RXZ0OmFjdGlvbj0iY3JlYXRlZCIgc3RFdnQ6aW5zdGFuY2VJRD0ieG1wLmlpZDo1YjIzZThmZC04N2IxLWE1NDctYjMxMC04NWNlZTYyZjJjZWIiIHN0RXZ0OndoZW49IjIwMjItMDEtMjNUMjM6MDU6NTUtMDU6MDAiIHN0RXZ0OnNvZnR3YXJlQWdlbnQ9IkFkb2JlIFBob3Rvc2hvcCAyMi4zIChXaW5kb3dzKSIvPiA8cmRmOmxpIHN0RXZ0OmFjdGlvbj0ic2F2ZWQiIHN0RXZ0Omluc3RhbmNlSUQ9InhtcC5paWQ6N2M2MDc4NzQtMjNlNy1mNjQyLTlmMTYtYWRkNTE4NTU5NGZiIiBzdEV2dDp3aGVuPSIyMDIyLTAxLTIzVDIzOjA2OjExLTA1OjAwIiBzdEV2dDpzb2Z0d2FyZUFnZW50PSJBZG9iZSBQaG90b3Nob3AgMjIuMyAoV2luZG93cykiIHN0RXZ0OmNoYW5nZWQ9Ii8iLz4gPHJkZjpsaSBzdEV2dDphY3Rpb249ImNvbnZlcnRlZCIgc3RFdnQ6cGFyYW1ldGVycz0iZnJvbSBhcHBsaWNhdGlvbi92bmQuYWRvYmUucGhvdG9zaG9wIHRvIGltYWdlL3BuZyIvPiA8cmRmOmxpIHN0RXZ0OmFjdGlvbj0iZGVyaXZlZCIgc3RFdnQ6cGFyYW1ldGVycz0iY29udmVydGVkIGZyb20gYXBwbGljYXRpb24vdm5kLmFkb2JlLnBob3Rvc2hvcCB0byBpbWFnZS9wbmciLz4gPHJkZjpsaSBzdEV2dDphY3Rpb249InNhdmVkIiBzdEV2dDppbnN0YW5jZUlEPSJ4bXAuaWlkOmEzNzhjZDVhLWE4MDgtZGI0Yy05MTM0LTc1ZGU3NWJjYWZmYiIgc3RFdnQ6d2hlbj0iMjAyMi0wMS0yM1QyMzowNjoxMS0wNTowMCIgc3RFdnQ6c29mdHdhcmVBZ2VudD0iQWRvYmUgUGhvdG9zaG9wIDIyLjMgKFdpbmRvd3MpIiBzdEV2dDpjaGFuZ2VkPSIvIi8+IDwvcmRmOlNlcT4gPC94bXBNTTpIaXN0b3J5PiA8eG1wTU06RGVyaXZlZEZyb20gc3RSZWY6aW5zdGFuY2VJRD0ieG1wLmlpZDo3YzYwNzg3NC0yM2U3LWY2NDItOWYxNi1hZGQ1MTg1NTk0ZmIiIHN0UmVmOmRvY3VtZW50SUQ9InhtcC5kaWQ6NWIyM2U4ZmQtODdiMS1hNTQ3LWIzMTAtODVjZWU2MmYyY2ViIiBzdFJlZjpvcmlnaW5hbERvY3VtZW50SUQ9InhtcC5kaWQ6NWIyM2U4ZmQtODdiMS1hNTQ3LWIzMTAtODVjZWU2MmYyY2ViIi8+IDxwaG90b3Nob3A6RG9jdW1lbnRBbmNlc3RvcnM+IDxyZGY6QmFnPiA8cmRmOmxpPmFkb2JlOmRvY2lkOnBob3Rvc2hvcDozMzdmOTg5ZS1hNzY2LWUzNDctOWI3Ny0yMGYyZTdmYTkyZDE8L3JkZjpsaT4gPHJkZjpsaT5hZG9iZTpkb2NpZDpwaG90b3Nob3A6N2Q2ZmVmM2EtNDUwYS1lOTQ1LThlZTYtNWMwMTgxMjk4ODI3PC9yZGY6bGk+IDwvcmRmOkJhZz4gPC9waG90b3Nob3A6RG9jdW1lbnRBbmNlc3RvcnM+IDwvcmRmOkRlc2NyaXB0aW9uPiA8L3JkZjpSREY+IDwveDp4bXBtZXRhPiA8P3hwYWNrZXQgZW5kPSJyIj8+RfNAgQAAE9JJREFUeNrt3c1uJMdhB/Ca/ZJ2JcsMDASGYWBH8cXQxRQMBwgcRKNLrqLyAuLqBUQ9gUZPwM0LiHoDri4+5EL6mgvpi05ByEUCJQEsk7JWu9ovMd1iDXY0mumu/phhz/D3Awqz0u7MdFdX17+qu6e7d3Z2FgCAbrqiCgBAUAMAghoABDUAIKgBAEENAIIaABDUACCoAQBBDQAIagAQ1ACAoAYAQQ0ALMw1VcCy6vV6nV/EOBi+Fl9TFjh/7ux3WXkWXz2HtiKP7kVQQwfd/vz9Ti3P/Tc+yUP5elZeysrNbPn+r8Zn5O99mr1X8qTXmUpg5Tj0DfML6VtZ+VmdkI6Dj8f2UcCMGtoN6DxYb8SQXsvC9j9a2Eefq10Q1EA7s+j8cPWrWUB/0dJHm1GDoAZanEW/loX0f7b4FT21DIIa6NYsGkBQQ4dn0QCCGhoG9I04i/5vNQMIahDQgKAGBDQgqEFAAwhqENCAoAYBDSCoQUADghouVzhfiyW/YckrAhoQ1NCt2fPLWTj/7xIs+s05PLrxB8+89hhN6Laeh6yztI239+I22NOeR232nDSA+UkM7ZUI8nxQo09DUEOHg3pGOL+0JLPnLgf5UoS3oEZQQzeDWjgvPryfdzG4BTWCGroV1Mt63nnVgvvVGNgXHtqCGkEN3Qrqq+H8EZM/EdBCW1Czqlz1zbK33/wxkz9TFd2QBfODsdC8lZUnwZXl0MgVVcCSt998Rv2qquhkaD/MSj6zfjkL7KvxQj9AUHOJ5B1/fvj7uqoQ2CCoAQQ2CGrg0gT2dWENghrobmA/FtYgqIHuh7VD4SCogQ6HtUPhIKiBJZldC2sQ1EDHw1q/BIIa6LAbZtXwgluIworIwu2tcP5UqypG90u/lc1m73VkVv0wW5eXsvLUrUfBjBqmBd6/LOmif5GV/6pY8vd8mZWHXVoRh8DBjBomw/n34fz5yvkM87UlXY2TrDyq+J6b8bWL90vPD4F/a1aNoIbLHdC/y16+zsq34fze4a+E82dbL6NH+WHjiusf4jo/79rKxEPg17q4bCCoYf6z529jQOfB9k1Wnobzh3v04p8xqwZBDQ2dxdlWUrBOzJ5H5Uks+WHvm/HzhIJZNQhqaEEervlFRw+yzvwfs9fXso79D4mz52exfDearcXDwHSznxLUCGpYQs9i+H4ZZ8WPsrD9h/h3T2IoT509O5S6XP1Utl2f2GYIaljeGfXZ2Kz5evy7p/Hvps6eWR7ZNnvg8DeCGpbT6Bz1aLacv14ZC3HhvFp9laBGUMOyBnYWxs915CvNzU/Q+AE6zL2/EdQAgKAGAAQ1AAhqAEBQA4CgBgAENQAgqIFV4+5yCGqALrr/xic/D+e3hAVBDdBB+T3cn6kGBDVA92bTvwzx0aRqA0EN0D0P8qD2BDQENYDZNAhqALNpENTA8s+mf2E2DeeuqQJYGTezgKv8nqzcyMrVDoX062bTIKhh5WSh9ucVmEn/Kns5zcpjs2k459A30KWQ/ktWHmblqdk0CGpASEPnOfQNXGRA/zYG9KmQBkENdCukf529/DWcXzj2WEiDoAa6EdB/n718mZWv4iz6+59hCWmYzjlqYKGyQP73GND5LPqZkAYzaqB7Yf0/YzPsW1kxqwYzaqCjof0wK/nM+uUssK9mpadWQFAD3Q3s68IaBDXQ3cB+bHYNghowuwZBDdDC7FpYI6gBhDUIagBhDYIaENYgqAGENQhqAGGNoAZYxrDWf3EpuNc3rIhshvlW9vK84tuuZuWlrNzKwu/ekq3yjWydv3V/cAQ1sCy+COePjKwUdll5bUln1Q+zoH4pK55jjaAGlsJJVh5VfM/N+Prqkob14yyor9U4kgCCGli4R/kss8obspDLX15Z8qBzCJyV5mIMYKnFwYm+DEEN0GGODiKoAboc1H5XjaAG6Kjbn7//QH+GoAbo+KxaFSCoAfRnoGED1OAcNYIaABDUAICgBgBBDbDI/sx5agQ1QBfd/vz9r/VpCGqAbruqChDUAB10/41P/lYtIKgBuutp8FxqBDVAZz3LyneqAUEN0E15SJ+pBgQ1ACCoASoym0ZQA3TR/Tc++XlwfhpBDdBZj8P5xWQgqAE66KkZNYIaoIPiYe9ntz9/3zlqVtI1VQAr42YWWpXfk5UbYblvvfltcNgbQQ10XTaj/PMlnE3/Mnt5Ehz2ZoU59A0sswd5UDvsjaAG6N5s+hdm0whqgG6G9N+ZTSOoAbrrr+H8t9Nm0whqgI7NpvND3g+z8tRsGkEN0K2Qfj045I2gBuhkSP8qezkNDnkjqAE6GdJ/CQ55cwm54QnQ5YD+bQzoUyGNoAboVkj/Opxf3Z2fk34spBHUAN2ZRZ/EkM5n0d/f1ERII6gBzKJBUAOYRYOgBpYjoH+XvXwVZ9Bm0SCogQ6E8+/D+TOkv46z5wdxBm0WDYIauODZ89cxpEdFQIOgBjo0e/4mK0+z8iwWAQ2CGrigcP7G7BkENbQpD4/8HtLPVUWlYP6nOEt+MhHOj82eQVBDm76LYfMoC59/zkLl31TJjwJ59DCM52PB/CQG8lPhDIIa5ikPlkfh/OdCNy5bWE8EcZgRyM/HBjWjYH4W//93whna1zs7sz+xpI2312v9I7NyPSu3srKWlZ9m5WZWrq5wNc4K4jAjkEdBfjYezPG/O0Gfhhk1rK6zGEoPY2DlrzfCaj8OdlYQh64HMghquNxhPZppXokz7VVeX0EMHebQNwB02BVVAACCGgAQ1AAgqAEAQQ0ACGoAENQAgKAGAEENAAhqAEBQA4CgBgAENQCsmsaPuez1emqRtqxnpR9fh6rjQgziNsh9qjpa1x9r44dZ2Vcly2thT5/Mv6hJgQbyMN7LylE4fw7yeFmktazsZOVk7Pt3Y2itemhsx21wMlH/e5pnawOfnVifk23cYHQFgnoRRVBzoe28oCzSQcFybKx4iMxab0Hd3mB0Vh0LakGdVJyjxozn/DDkLB/UnKluxpnUpioGmrimCrjkThv+/SiY85n3b8IPz/Hm7qtiQFBDfYfh/KKpzRkh/XHCZ+Tv/UhVAoIa5uNOVv6YlXfC+YVluc9igJ+qHkBQw8X7NPg5ErAKQd3r9fqh+AKZuxVmIfnsZSv++TS+t4qtsRnQpGFczv6Mvz/Myr0K37URXlx0dC++P1VRne3Hz9oqCZHjCt83nPHnFEV1Nlxg28y36yDW+Vsztt9Xsf72K352WRtOqfvxenqr4P1vldTbMHF5B/H1NzPa/B/jPnQYuvHb3EEsPw3TL9bL6/T+2PKetrgNj8cGXaPlmFZv+Xf+qUYbGm+b0z53tG77cf2XQT+uT15uz+gDmm6z8fpbj3U467ua7N+z2sdkxqyHF9eWrFVc1+/bQJaHs9rA4agNnJ2dHTbeOjV+jpUv0LTfvdb5ycF2qP9TmEHBMuyOdaaz/s1JQchP2+jjvzM9qvDe3F7Bcgzivyn6idBOxZCuuz3WC5bhYA6dw1mLZSek/+55UOFzBzW2aZVStpx1v2e3YMCVUg91fp41iNuhzvLuhWpXyJct+7Ckn5rsC1IHsbstttlFDnxn9WvbFeppWhurus12G3zXoIX2sRnLUY3+pV9zHfLv2lz476hbCsBBw/AsqujxDqqNAJy2YbZbHFCkhEc/ccer+97UAUVXg3q8k24SUF0J6p2Gn5uyL7UV1GstBthBKP65XJ1tWHcbjw9gD+bQVocXGNA7La7HekL97S1w/267fbRV8n1kbaE3PCmp+GHCjn2UEF5Fh7xTv7tpAG40aKBVBhShpLPbaRC0KZ3uRuKAoutBPQqpjSUO6mELn7vZsDNLDer18OO7mp0tYPnb6oi3EmbR82qnFxHUGy1vr82E+juZw/69voRB/X0/Xidve3XvLtbr9QYFO3N+PP/NMPu8at5Ai37O8nbBeYm1gkPP+fe+PuV8wm5Bx52fy7pT47tG5yHeLBlQzJp5fzxlR+3H75vlzTD73PhWySz/w1B8DcBRwaDl9VDtHHmVoA4FbeheOD/3ejyxA96O27NsxvhumH4dwuT5q/cK1n1WW9wMPzxHPSvQ9+M6FJ2qqLItTmOb/Wxiffpjy3Ect1lKUO8VLPfbiTOlou1wGJf1cGy/HJTUWdn2K1v2afU1Ooe/Fr97Iy7TuzX335HjuIz3x/bN8e8omgh8vOCw3kwY8B/Hbf+nib5m2n5X1HeOBgVlg/xR+9gfq7u8Xb1TEsansX0eNmgfk22jP7bdUo7sTi776P1lg5e3s9zdr9ZTNrt9aJ0Z4HriMf1ZFbVdY3Tcrzmr3m4wKl4rGEkWHZYc1pjlrCWMWut+5zw7kqLlTdlRtkrWO/VUStND/m3XX5MZzFqFUx1NZ9RHDY5qjL6/7vZLmTHthGrXklT5/JT1KzuFsciQXk9Yn63Ez0oJ/H7Cti3bt8pm/3sNtt+woG30U9v2jFwsO8q0vdB7fdcMwNRzPdsVA/eoQWe60/DQSb9iyG+WdLQnFYMj9fzgbosDinkHdVsdakpn2LWgLuokDkJ71ws0CeqyQ8KDlgJks+Z232lYN0c1JxJdGQRXaeMph5Kr2mnp+zZqtrOmg9DNlPcXZGNR/793EQ/lqBKAW6HZRQpNOtSqAVjlqsC9FgcUyY0ksSGXPWSi7oCiK0Fd1ikcNOzELiKoU7bpUdx2TUK7SWe2F9q7pmG3xnKUBXWTAeZ6aGcQ0pWgLptQbc3hO08qTsLqDpq25xTUSe8vyMVB14K6LAD7iYdCyjrZphVfJQCHodlFKW1cPX2U8Blls+Gy2UC/YcB1Jag3G35W14K6Thvci22wX+E7muxTTS9kSx3An9RY9qOG7XLY4md3IajL9o+2j5qVDQyqDi63Wx7ILV1Qt/H0rNNwfqFSUSWHgvNF+funXQA2GtkOx94/y53EZf00FF98MIjfOetCt7th9r2fPwovboQwqyHuh/Qf7xet00cT3zmtTvOLZI5n7EQfJdTph2F5HIfVk7f7tyu0l0F48ZvYnYqBfdHb47DkSFiX2sMytrWitrAf2r9Nblnb26/4eV+FS66tx1wWBeBGySG6O7HxzwqmD+L7+wXhWWXn+bAkAHcKOpPRVZqHMzqUnZYGFGWhPojfM+uQ1cfxvXcKZjDDlgYUzM9+DOu3Q7X7jm/GIyKbS7Keazb1pdJXBRcT1GUBuFUQsvfin++F6T/FWCt4/2lIe7pRlQBcLwjZUUf57oxOc6PFAUVZsG8WrN/dKX+eNStvOqDogsGKz7ZHg66/iaF9N5TfwnZtzjProkHDesXPWl+i7beMIXNac9+p67DlOvyNoG63M7lX4d8fTwnZO6HaYZiPQ73DNlWD6MOJxndccYBQZ0Ax+p67Fb/n3ZJlL1NnQHHR3itpl6s2y8636ZuxlO1zH81xOWZ5Z8m332FJyAyWsM2EGoP+JgOD45rbe9qAs6i+P7sUSd3CxWSTjbjpbec2Et/f9IKR7VDviu5xqXen2mqwnHlDTb0Ib6NgxtLWbSfHj3LsjZU6VyC3cTHZTs12lrodU9ZpGJpf6NjEbmj/t6ZNf5612dL2G8xh2VPad9M7Y6W0jWGFWfz2xP42rDgzPQrt/jyrX9JXDFvYL8vadtE9MJq2j6T3L9NV33UCcNhw5636AI+6AXhSsjP0Ez7jqIWOeCvU+915lR0ndUCxHtr76UXT+y/vNqyTtoJ6q0FbXS9pnzsJbX0eQZ0yWDoIzW4qUbb95jXIaGMgf1KyfinrmBLUbQ2INhLXpyz8+2N1s9ugfz0pWfZ+wkRoe47tY+WDumwDpVTSWskIsK1ZSpMONvUz2jpM1sYNGA5aGFCkzO5TO4+Un+dtxw5kODarOEl871ricjQN6n7i8gzHyvh6pITvydiRi9Fn7ITy3/sPGwT1ZsJ6pwx296ZswyZ3J1xEUK+F9JszHcTtNb6OKe8tC+rUI2GpM+udmuszjP99VGMQmtI+6tTdwZzbx8oHdVF4nYR2bm+4Htozq6Orcmej3QUc9myjPtYbBtIgcUdPPaQ316fUVKjbNn73vt1geeue/mnamaUc4t1MaFNHLW+/g7D4R3Q2Det5PJRjmPg5VSYDw5bXoex0WUpY13mC1tqc28elCOpZAbhZcUfZbhigdQOw6vOmZx1FWG95WfdC85smbDXo2NZCu+fk2+74jmqeEmkjqNdC/Sdq1Tlq0UZnFhKXeTdh3bdb6vSHDfbbeQyQ21q3OkGdOmBbr9Hn7bW4HlsJdbjTUvvYWlD7uDRBPai4s6ccAp/Xvaf3WjhcvTHnAcW0GfFBS+vbr/DesnNmVQ45z5rB7VbceVPO4847qMfrp+osbNoh5a0anemoLqoscz+UP7N9rcJnbdVY/4P4vrWKYbPIC/j64cUNZaqsV5PHAaccrt5p2J/shHpHREbbrD/nOhxlx+aC20engrr2Yy5Her1e2extVLl3Q72fUq2PdcKHodpPwKo0oM0WvqON9U0JgtHO8Wmo91Oq8fU9jp9TdUT+QXxdG6u3zyrO8Cf/7b3w40fr9Wd0Bvtx2Y9bqNP1UPwo09OaddwvCM3jiVJW3/2CTnE/LuNhgzrYmJiZHY/Vcd2Z6HrBch+PfUeTz5+maV2kfve0djNar1G7Kdpuqe0331ffm2hLeb39a4v9Ydn2Gt8X9udch218V9P2kfT+WfmZ5WLh+7P3VWqfjYMaAJifK6oAAAQ1ACCoAUBQAwCCGgAQ1AAgqAEAQQ0AghoAENQAgKAGAEENAAhqABDUAICgBgAENQAIagCgnv8HRFgz+T/hx68AAAAASUVORK5CYII=;opacity=10;" vertex="1" parent="WIyWlLk6GJQsqaUBKTNV-1">
          <mxGeometry x="90" y="371.34" width="680" height="288.66" as="geometry" />
        </mxCell>
        <mxCell id="HZIwIbo949U0xjIL2Lyr-103" value="" style="shape=image;imageAspect=0;aspect=fixed;verticalLabelPosition=bottom;verticalAlign=top;fontFamily=Helvetica;fontSize=18;strokeWidth=2;gradientColor=none;image=data:image/png,iVBORw0KGgoAAAANSUhEUgAAAeoAAADQCAYAAADI+yJFAAAACXBIWXMAABJ0AAASdAHeZh94AAAJmmlUWHRYTUw6Y29tLmFkb2JlLnhtcAAAAAAAPD94cGFja2V0IGJlZ2luPSLvu78iIGlkPSJXNU0wTXBDZWhpSHpyZVN6TlRjemtjOWQiPz4gPHg6eG1wbWV0YSB4bWxuczp4PSJhZG9iZTpuczptZXRhLyIgeDp4bXB0az0iQWRvYmUgWE1QIENvcmUgNi4wLWMwMDYgNzkuMTY0NzUzLCAyMDIxLzAyLzE1LTExOjUyOjEzICAgICAgICAiPiA8cmRmOlJERiB4bWxuczpyZGY9Imh0dHA6Ly93d3cudzMub3JnLzE5OTkvMDIvMjItcmRmLXN5bnRheC1ucyMiPiA8cmRmOkRlc2NyaXB0aW9uIHJkZjphYm91dD0iIiB4bWxuczp4bXA9Imh0dHA6Ly9ucy5hZG9iZS5jb20veGFwLzEuMC8iIHhtbG5zOmRjPSJodHRwOi8vcHVybC5vcmcvZGMvZWxlbWVudHMvMS4xLyIgeG1sbnM6eG1wTU09Imh0dHA6Ly9ucy5hZG9iZS5jb20veGFwLzEuMC9tbS8iIHhtbG5zOnN0RXZ0PSJodHRwOi8vbnMuYWRvYmUuY29tL3hhcC8xLjAvc1R5cGUvUmVzb3VyY2VFdmVudCMiIHhtbG5zOnN0UmVmPSJodHRwOi8vbnMuYWRvYmUuY29tL3hhcC8xLjAvc1R5cGUvUmVzb3VyY2VSZWYjIiB4bWxuczpwaG90b3Nob3A9Imh0dHA6Ly9ucy5hZG9iZS5jb20vcGhvdG9zaG9wLzEuMC8iIHhtcDpDcmVhdG9yVG9vbD0iQWRvYmUgUGhvdG9zaG9wIDIyLjMgKFdpbmRvd3MpIiB4bXA6Q3JlYXRlRGF0ZT0iMjAyMi0wMS0yM1QyMzowNTo1NS0wNTowMCIgeG1wOk1ldGFkYXRhRGF0ZT0iMjAyMi0wMS0yM1QyMzowNjoxMS0wNTowMCIgeG1wOk1vZGlmeURhdGU9IjIwMjItMDEtMjNUMjM6MDY6MTEtMDU6MDAiIGRjOmZvcm1hdD0iaW1hZ2UvcG5nIiB4bXBNTTpJbnN0YW5jZUlEPSJ4bXAuaWlkOmEzNzhjZDVhLWE4MDgtZGI0Yy05MTM0LTc1ZGU3NWJjYWZmYiIgeG1wTU06RG9jdW1lbnRJRD0iYWRvYmU6ZG9jaWQ6cGhvdG9zaG9wOmQwNDcwMDA5LTQzOGMtOWE0ZC04NTAyLTkyMDM4ZGJlNmNlNCIgeG1wTU06T3JpZ2luYWxEb2N1bWVudElEPSJ4bXAuZGlkOjViMjNlOGZkLTg3YjEtYTU0Ny1iMzEwLTg1Y2VlNjJmMmNlYiIgcGhvdG9zaG9wOkNvbG9yTW9kZT0iMyIgcGhvdG9zaG9wOklDQ1Byb2ZpbGU9InNSR0IgSUVDNjE5NjYtMi4xIj4gPHhtcE1NOkhpc3Rvcnk+IDxyZGY6U2VxPiA8cmRmOmxpIHN0RXZ0OmFjdGlvbj0iY3JlYXRlZCIgc3RFdnQ6aW5zdGFuY2VJRD0ieG1wLmlpZDo1YjIzZThmZC04N2IxLWE1NDctYjMxMC04NWNlZTYyZjJjZWIiIHN0RXZ0OndoZW49IjIwMjItMDEtMjNUMjM6MDU6NTUtMDU6MDAiIHN0RXZ0OnNvZnR3YXJlQWdlbnQ9IkFkb2JlIFBob3Rvc2hvcCAyMi4zIChXaW5kb3dzKSIvPiA8cmRmOmxpIHN0RXZ0OmFjdGlvbj0ic2F2ZWQiIHN0RXZ0Omluc3RhbmNlSUQ9InhtcC5paWQ6N2M2MDc4NzQtMjNlNy1mNjQyLTlmMTYtYWRkNTE4NTU5NGZiIiBzdEV2dDp3aGVuPSIyMDIyLTAxLTIzVDIzOjA2OjExLTA1OjAwIiBzdEV2dDpzb2Z0d2FyZUFnZW50PSJBZG9iZSBQaG90b3Nob3AgMjIuMyAoV2luZG93cykiIHN0RXZ0OmNoYW5nZWQ9Ii8iLz4gPHJkZjpsaSBzdEV2dDphY3Rpb249ImNvbnZlcnRlZCIgc3RFdnQ6cGFyYW1ldGVycz0iZnJvbSBhcHBsaWNhdGlvbi92bmQuYWRvYmUucGhvdG9zaG9wIHRvIGltYWdlL3BuZyIvPiA8cmRmOmxpIHN0RXZ0OmFjdGlvbj0iZGVyaXZlZCIgc3RFdnQ6cGFyYW1ldGVycz0iY29udmVydGVkIGZyb20gYXBwbGljYXRpb24vdm5kLmFkb2JlLnBob3Rvc2hvcCB0byBpbWFnZS9wbmciLz4gPHJkZjpsaSBzdEV2dDphY3Rpb249InNhdmVkIiBzdEV2dDppbnN0YW5jZUlEPSJ4bXAuaWlkOmEzNzhjZDVhLWE4MDgtZGI0Yy05MTM0LTc1ZGU3NWJjYWZmYiIgc3RFdnQ6d2hlbj0iMjAyMi0wMS0yM1QyMzowNjoxMS0wNTowMCIgc3RFdnQ6c29mdHdhcmVBZ2VudD0iQWRvYmUgUGhvdG9zaG9wIDIyLjMgKFdpbmRvd3MpIiBzdEV2dDpjaGFuZ2VkPSIvIi8+IDwvcmRmOlNlcT4gPC94bXBNTTpIaXN0b3J5PiA8eG1wTU06RGVyaXZlZEZyb20gc3RSZWY6aW5zdGFuY2VJRD0ieG1wLmlpZDo3YzYwNzg3NC0yM2U3LWY2NDItOWYxNi1hZGQ1MTg1NTk0ZmIiIHN0UmVmOmRvY3VtZW50SUQ9InhtcC5kaWQ6NWIyM2U4ZmQtODdiMS1hNTQ3LWIzMTAtODVjZWU2MmYyY2ViIiBzdFJlZjpvcmlnaW5hbERvY3VtZW50SUQ9InhtcC5kaWQ6NWIyM2U4ZmQtODdiMS1hNTQ3LWIzMTAtODVjZWU2MmYyY2ViIi8+IDxwaG90b3Nob3A6RG9jdW1lbnRBbmNlc3RvcnM+IDxyZGY6QmFnPiA8cmRmOmxpPmFkb2JlOmRvY2lkOnBob3Rvc2hvcDozMzdmOTg5ZS1hNzY2LWUzNDctOWI3Ny0yMGYyZTdmYTkyZDE8L3JkZjpsaT4gPHJkZjpsaT5hZG9iZTpkb2NpZDpwaG90b3Nob3A6N2Q2ZmVmM2EtNDUwYS1lOTQ1LThlZTYtNWMwMTgxMjk4ODI3PC9yZGY6bGk+IDwvcmRmOkJhZz4gPC9waG90b3Nob3A6RG9jdW1lbnRBbmNlc3RvcnM+IDwvcmRmOkRlc2NyaXB0aW9uPiA8L3JkZjpSREY+IDwveDp4bXBtZXRhPiA8P3hwYWNrZXQgZW5kPSJyIj8+RfNAgQAAE9JJREFUeNrt3c1uJMdhB/Ca/ZJ2JcsMDASGYWBH8cXQxRQMBwgcRKNLrqLyAuLqBUQ9gUZPwM0LiHoDri4+5EL6mgvpi05ByEUCJQEsk7JWu9ovMd1iDXY0mumu/phhz/D3Awqz0u7MdFdX17+qu6e7d3Z2FgCAbrqiCgBAUAMAghoABDUAIKgBAEENAIIaABDUACCoAQBBDQAIagAQ1ACAoAYAQQ0ALMw1VcCy6vV6nV/EOBi+Fl9TFjh/7ux3WXkWXz2HtiKP7kVQQwfd/vz9Ti3P/Tc+yUP5elZeysrNbPn+r8Zn5O99mr1X8qTXmUpg5Tj0DfML6VtZ+VmdkI6Dj8f2UcCMGtoN6DxYb8SQXsvC9j9a2Eefq10Q1EA7s+j8cPWrWUB/0dJHm1GDoAZanEW/loX0f7b4FT21DIIa6NYsGkBQQ4dn0QCCGhoG9I04i/5vNQMIahDQgKAGBDQgqEFAAwhqENCAoAYBDSCoQUADghouVzhfiyW/YckrAhoQ1NCt2fPLWTj/7xIs+s05PLrxB8+89hhN6Laeh6yztI239+I22NOeR232nDSA+UkM7ZUI8nxQo09DUEOHg3pGOL+0JLPnLgf5UoS3oEZQQzeDWjgvPryfdzG4BTWCGroV1Mt63nnVgvvVGNgXHtqCGkEN3Qrqq+H8EZM/EdBCW1Czqlz1zbK33/wxkz9TFd2QBfODsdC8lZUnwZXl0MgVVcCSt998Rv2qquhkaD/MSj6zfjkL7KvxQj9AUHOJ5B1/fvj7uqoQ2CCoAQQ2CGrg0gT2dWENghrobmA/FtYgqIHuh7VD4SCogQ6HtUPhIKiBJZldC2sQ1EDHw1q/BIIa6LAbZtXwgluIworIwu2tcP5UqypG90u/lc1m73VkVv0wW5eXsvLUrUfBjBqmBd6/LOmif5GV/6pY8vd8mZWHXVoRh8DBjBomw/n34fz5yvkM87UlXY2TrDyq+J6b8bWL90vPD4F/a1aNoIbLHdC/y16+zsq34fze4a+E82dbL6NH+WHjiusf4jo/79rKxEPg17q4bCCoYf6z529jQOfB9k1Wnobzh3v04p8xqwZBDQ2dxdlWUrBOzJ5H5Uks+WHvm/HzhIJZNQhqaEEervlFRw+yzvwfs9fXso79D4mz52exfDearcXDwHSznxLUCGpYQs9i+H4ZZ8WPsrD9h/h3T2IoT509O5S6XP1Utl2f2GYIaljeGfXZ2Kz5evy7p/Hvps6eWR7ZNnvg8DeCGpbT6Bz1aLacv14ZC3HhvFp9laBGUMOyBnYWxs915CvNzU/Q+AE6zL2/EdQAgKAGAAQ1AAhqAEBQA4CgBgAENQAgqIFV4+5yCGqALrr/xic/D+e3hAVBDdBB+T3cn6kGBDVA92bTvwzx0aRqA0EN0D0P8qD2BDQENYDZNAhqALNpENTA8s+mf2E2DeeuqQJYGTezgKv8nqzcyMrVDoX062bTIKhh5WSh9ucVmEn/Kns5zcpjs2k459A30KWQ/ktWHmblqdk0CGpASEPnOfQNXGRA/zYG9KmQBkENdCukf529/DWcXzj2WEiDoAa6EdB/n718mZWv4iz6+59hCWmYzjlqYKGyQP73GND5LPqZkAYzaqB7Yf0/YzPsW1kxqwYzaqCjof0wK/nM+uUssK9mpadWQFAD3Q3s68IaBDXQ3cB+bHYNghowuwZBDdDC7FpYI6gBhDUIagBhDYIaENYgqAGENQhqAGGNoAZYxrDWf3EpuNc3rIhshvlW9vK84tuuZuWlrNzKwu/ekq3yjWydv3V/cAQ1sCy+COePjKwUdll5bUln1Q+zoH4pK55jjaAGlsJJVh5VfM/N+Prqkob14yyor9U4kgCCGli4R/kss8obspDLX15Z8qBzCJyV5mIMYKnFwYm+DEEN0GGODiKoAboc1H5XjaAG6Kjbn7//QH+GoAbo+KxaFSCoAfRnoGED1OAcNYIaABDUAICgBgBBDbDI/sx5agQ1QBfd/vz9r/VpCGqAbruqChDUAB10/41P/lYtIKgBuutp8FxqBDVAZz3LyneqAUEN0E15SJ+pBgQ1ACCoASoym0ZQA3TR/Tc++XlwfhpBDdBZj8P5xWQgqAE66KkZNYIaoIPiYe9ntz9/3zlqVtI1VQAr42YWWpXfk5UbYblvvfltcNgbQQ10XTaj/PMlnE3/Mnt5Ehz2ZoU59A0sswd5UDvsjaAG6N5s+hdm0whqgG6G9N+ZTSOoAbrrr+H8t9Nm0whqgI7NpvND3g+z8tRsGkEN0K2Qfj045I2gBuhkSP8qezkNDnkjqAE6GdJ/CQ55cwm54QnQ5YD+bQzoUyGNoAboVkj/Opxf3Z2fk34spBHUAN2ZRZ/EkM5n0d/f1ERII6gBzKJBUAOYRYOgBpYjoH+XvXwVZ9Bm0SCogQ6E8+/D+TOkv46z5wdxBm0WDYIauODZ89cxpEdFQIOgBjo0e/4mK0+z8iwWAQ2CGrigcP7G7BkENbQpD4/8HtLPVUWlYP6nOEt+MhHOj82eQVBDm76LYfMoC59/zkLl31TJjwJ59DCM52PB/CQG8lPhDIIa5ikPlkfh/OdCNy5bWE8EcZgRyM/HBjWjYH4W//93whna1zs7sz+xpI2312v9I7NyPSu3srKWlZ9m5WZWrq5wNc4K4jAjkEdBfjYezPG/O0Gfhhk1rK6zGEoPY2DlrzfCaj8OdlYQh64HMghquNxhPZppXokz7VVeX0EMHebQNwB02BVVAACCGgAQ1AAgqAEAQQ0ACGoAENQAgKAGAEENAAhqAEBQA4CgBgAENQCsmsaPuez1emqRtqxnpR9fh6rjQgziNsh9qjpa1x9r44dZ2Vcly2thT5/Mv6hJgQbyMN7LylE4fw7yeFmktazsZOVk7Pt3Y2itemhsx21wMlH/e5pnawOfnVifk23cYHQFgnoRRVBzoe28oCzSQcFybKx4iMxab0Hd3mB0Vh0LakGdVJyjxozn/DDkLB/UnKluxpnUpioGmrimCrjkThv+/SiY85n3b8IPz/Hm7qtiQFBDfYfh/KKpzRkh/XHCZ+Tv/UhVAoIa5uNOVv6YlXfC+YVluc9igJ+qHkBQw8X7NPg5ErAKQd3r9fqh+AKZuxVmIfnsZSv++TS+t4qtsRnQpGFczv6Mvz/Myr0K37URXlx0dC++P1VRne3Hz9oqCZHjCt83nPHnFEV1Nlxg28y36yDW+Vsztt9Xsf72K352WRtOqfvxenqr4P1vldTbMHF5B/H1NzPa/B/jPnQYuvHb3EEsPw3TL9bL6/T+2PKetrgNj8cGXaPlmFZv+Xf+qUYbGm+b0z53tG77cf2XQT+uT15uz+gDmm6z8fpbj3U467ua7N+z2sdkxqyHF9eWrFVc1+/bQJaHs9rA4agNnJ2dHTbeOjV+jpUv0LTfvdb5ycF2qP9TmEHBMuyOdaaz/s1JQchP2+jjvzM9qvDe3F7Bcgzivyn6idBOxZCuuz3WC5bhYA6dw1mLZSek/+55UOFzBzW2aZVStpx1v2e3YMCVUg91fp41iNuhzvLuhWpXyJct+7Ckn5rsC1IHsbstttlFDnxn9WvbFeppWhurus12G3zXoIX2sRnLUY3+pV9zHfLv2lz476hbCsBBw/AsqujxDqqNAJy2YbZbHFCkhEc/ccer+97UAUVXg3q8k24SUF0J6p2Gn5uyL7UV1GstBthBKP65XJ1tWHcbjw9gD+bQVocXGNA7La7HekL97S1w/267fbRV8n1kbaE3PCmp+GHCjn2UEF5Fh7xTv7tpAG40aKBVBhShpLPbaRC0KZ3uRuKAoutBPQqpjSUO6mELn7vZsDNLDer18OO7mp0tYPnb6oi3EmbR82qnFxHUGy1vr82E+juZw/69voRB/X0/Xidve3XvLtbr9QYFO3N+PP/NMPu8at5Ai37O8nbBeYm1gkPP+fe+PuV8wm5Bx52fy7pT47tG5yHeLBlQzJp5fzxlR+3H75vlzTD73PhWySz/w1B8DcBRwaDl9VDtHHmVoA4FbeheOD/3ejyxA96O27NsxvhumH4dwuT5q/cK1n1WW9wMPzxHPSvQ9+M6FJ2qqLItTmOb/Wxiffpjy3Ect1lKUO8VLPfbiTOlou1wGJf1cGy/HJTUWdn2K1v2afU1Ooe/Fr97Iy7TuzX335HjuIz3x/bN8e8omgh8vOCw3kwY8B/Hbf+nib5m2n5X1HeOBgVlg/xR+9gfq7u8Xb1TEsansX0eNmgfk22jP7bdUo7sTi776P1lg5e3s9zdr9ZTNrt9aJ0Z4HriMf1ZFbVdY3Tcrzmr3m4wKl4rGEkWHZYc1pjlrCWMWut+5zw7kqLlTdlRtkrWO/VUStND/m3XX5MZzFqFUx1NZ9RHDY5qjL6/7vZLmTHthGrXklT5/JT1KzuFsciQXk9Yn63Ez0oJ/H7Cti3bt8pm/3sNtt+woG30U9v2jFwsO8q0vdB7fdcMwNRzPdsVA/eoQWe60/DQSb9iyG+WdLQnFYMj9fzgbosDinkHdVsdakpn2LWgLuokDkJ71ws0CeqyQ8KDlgJks+Z232lYN0c1JxJdGQRXaeMph5Kr2mnp+zZqtrOmg9DNlPcXZGNR/793EQ/lqBKAW6HZRQpNOtSqAVjlqsC9FgcUyY0ksSGXPWSi7oCiK0Fd1ikcNOzELiKoU7bpUdx2TUK7SWe2F9q7pmG3xnKUBXWTAeZ6aGcQ0pWgLptQbc3hO08qTsLqDpq25xTUSe8vyMVB14K6LAD7iYdCyjrZphVfJQCHodlFKW1cPX2U8Blls+Gy2UC/YcB1Jag3G35W14K6Thvci22wX+E7muxTTS9kSx3An9RY9qOG7XLY4md3IajL9o+2j5qVDQyqDi63Wx7ILV1Qt/H0rNNwfqFSUSWHgvNF+funXQA2GtkOx94/y53EZf00FF98MIjfOetCt7th9r2fPwovboQwqyHuh/Qf7xet00cT3zmtTvOLZI5n7EQfJdTph2F5HIfVk7f7tyu0l0F48ZvYnYqBfdHb47DkSFiX2sMytrWitrAf2r9Nblnb26/4eV+FS66tx1wWBeBGySG6O7HxzwqmD+L7+wXhWWXn+bAkAHcKOpPRVZqHMzqUnZYGFGWhPojfM+uQ1cfxvXcKZjDDlgYUzM9+DOu3Q7X7jm/GIyKbS7Keazb1pdJXBRcT1GUBuFUQsvfin++F6T/FWCt4/2lIe7pRlQBcLwjZUUf57oxOc6PFAUVZsG8WrN/dKX+eNStvOqDogsGKz7ZHg66/iaF9N5TfwnZtzjProkHDesXPWl+i7beMIXNac9+p67DlOvyNoG63M7lX4d8fTwnZO6HaYZiPQ73DNlWD6MOJxndccYBQZ0Ax+p67Fb/n3ZJlL1NnQHHR3itpl6s2y8636ZuxlO1zH81xOWZ5Z8m332FJyAyWsM2EGoP+JgOD45rbe9qAs6i+P7sUSd3CxWSTjbjpbec2Et/f9IKR7VDviu5xqXen2mqwnHlDTb0Ib6NgxtLWbSfHj3LsjZU6VyC3cTHZTs12lrodU9ZpGJpf6NjEbmj/t6ZNf5612dL2G8xh2VPad9M7Y6W0jWGFWfz2xP42rDgzPQrt/jyrX9JXDFvYL8vadtE9MJq2j6T3L9NV33UCcNhw5636AI+6AXhSsjP0Ez7jqIWOeCvU+915lR0ndUCxHtr76UXT+y/vNqyTtoJ6q0FbXS9pnzsJbX0eQZ0yWDoIzW4qUbb95jXIaGMgf1KyfinrmBLUbQ2INhLXpyz8+2N1s9ugfz0pWfZ+wkRoe47tY+WDumwDpVTSWskIsK1ZSpMONvUz2jpM1sYNGA5aGFCkzO5TO4+Un+dtxw5kODarOEl871ricjQN6n7i8gzHyvh6pITvydiRi9Fn7ITy3/sPGwT1ZsJ6pwx296ZswyZ3J1xEUK+F9JszHcTtNb6OKe8tC+rUI2GpM+udmuszjP99VGMQmtI+6tTdwZzbx8oHdVF4nYR2bm+4Htozq6Orcmej3QUc9myjPtYbBtIgcUdPPaQ316fUVKjbNn73vt1geeue/mnamaUc4t1MaFNHLW+/g7D4R3Q2Det5PJRjmPg5VSYDw5bXoex0WUpY13mC1tqc28elCOpZAbhZcUfZbhigdQOw6vOmZx1FWG95WfdC85smbDXo2NZCu+fk2+74jmqeEmkjqNdC/Sdq1Tlq0UZnFhKXeTdh3bdb6vSHDfbbeQyQ21q3OkGdOmBbr9Hn7bW4HlsJdbjTUvvYWlD7uDRBPai4s6ccAp/Xvaf3WjhcvTHnAcW0GfFBS+vbr/DesnNmVQ45z5rB7VbceVPO4847qMfrp+osbNoh5a0anemoLqoscz+UP7N9rcJnbdVY/4P4vrWKYbPIC/j64cUNZaqsV5PHAaccrt5p2J/shHpHREbbrD/nOhxlx+aC20engrr2Yy5Her1e2extVLl3Q72fUq2PdcKHodpPwKo0oM0WvqON9U0JgtHO8Wmo91Oq8fU9jp9TdUT+QXxdG6u3zyrO8Cf/7b3w40fr9Wd0Bvtx2Y9bqNP1UPwo09OaddwvCM3jiVJW3/2CTnE/LuNhgzrYmJiZHY/Vcd2Z6HrBch+PfUeTz5+maV2kfve0djNar1G7Kdpuqe0331ffm2hLeb39a4v9Ydn2Gt8X9udch218V9P2kfT+WfmZ5WLh+7P3VWqfjYMaAJifK6oAAAQ1ACCoAUBQAwCCGgAQ1AAgqAEAQQ0AghoAENQAgKAGAEENAAhqABDUAICgBgAENQAIagCgnv8HRFgz+T/hx68AAAAASUVORK5CYII=;" vertex="1" parent="WIyWlLk6GJQsqaUBKTNV-1">
          <mxGeometry x="660" y="880" width="120" height="50.94" as="geometry" />
        </mxCell>
      </root>
    </mxGraphModel>
  </diagram>
</mxfile>
